<svg width="481" height="414" viewBox="0 0 481 414" fill="none" xmlns="http://www.w3.org/2000/svg">
<path d="M292.804 0H185.693L0 294.994V414H481V294.994L292.804 0Z" fill="white"/>
<path d="M453.041 288.758C454.036 290.377 454.786 291.887 455.465 293.732L442.497 315.11L431.917 332.798L423.398 346.914L410.747 367.849L344.19 367.813L344.163 307.704L367.168 307.622L374.312 296.174C375.741 293.886 375.651 292.746 374.294 290.395L347.726 244.483L340.799 232.321L334.233 220.872L328.328 210.69L308.235 175.449L299.761 160.618L281.359 128.669L275.2 117.944L263.535 97.6242L254.971 82.893L245.44 82.6669L245.421 18.009H288.494L294.896 29.1772L302.935 42.7237L314.718 62.7541L327.044 83.6074L325.425 99.8126C325.245 101.648 324.584 103.927 325.489 105.428L329.82 112.645L342.155 133.625L352.148 150.418L363.325 169.544L373.417 186.734L382.225 201.656L388.031 211.711L399.669 231.579L411.543 231.534C413.749 231.534 416.209 231.787 418.289 232.312L427.639 247.712L434.06 257.822L441.484 269.976L453.059 288.776L453.041 288.758Z" fill="black"/>
<path d="M54.3234 341.425L25.25 293.56C26.5251 291.046 27.9177 288.677 29.455 286.19L36.7437 274.398L46.7092 258.12L56.4395 242.241L62.7154 232.185C68.8466 231.344 75.0773 231.461 81.6787 231.606L85.7843 224.218L95.2162 207.995L103.961 192.947L114.324 175.096L121.685 162.382L129.236 149.396L132.881 143.174L143.38 125.323L151.084 112.111L155.28 104.886L153.074 83.4989L156.953 76.6623L162.469 67.2033L180.23 36.7553L186.886 25.352L190.892 18.0181L234.425 18L234.398 82.6941L225.056 82.8478L219.667 92.2797L208.833 111.306L195.893 133.887L187.501 148.519L178.738 164.027L158.183 200.046L151.97 210.861L148.046 217.761L143.271 226.28L133.134 243.986L104.874 293.271L107.714 298.037L113.664 307.622L136.679 307.713V367.831L70.1669 367.867L64.7049 358.67C62.0733 354.067 59.0078 349.944 56.4395 345.287L54.3234 341.443V341.425Z" fill="black"/>
<path d="M323.237 288.623C323.599 291.336 324.422 296.653 321.012 296.635L299.571 296.508L163.13 296.599C161.176 296.599 159.476 296.608 158.038 296.481L157.93 288.659L237.029 288.677H261.292L292.644 288.641H323.237V288.623Z" fill="black"/>
<path d="M54.5043 364.349C54.7575 364.765 55.0288 365.254 55.1373 365.453C55.273 365.715 54.224 366.212 53.9255 366.212L36.1017 366.013L36.0745 350.351L35.9841 335.222C38.4529 338.215 40.0264 341.1 41.9977 344.238L49.1508 355.659L54.5133 364.358L54.5043 364.349Z" fill="black"/>
<path d="M437.731 366.122L425.424 366.149L442.642 338.694C443.428 337.437 443.962 336.451 444.857 335.276L444.83 365.841C442.533 366.194 440.173 366.122 437.713 366.131L437.731 366.122Z" fill="black"/>
<path d="M171.413 308.926H203.972V316.298H171.413V308.926ZM169.7 332.555H205.29V339.993H169.7V332.555ZM190.856 312.151H198.369V367.506H190.856V312.151ZM176.027 312.349H183.409V334.662C183.409 337.382 183.299 340.256 183.079 343.284C182.859 346.268 182.42 349.252 181.761 352.236C181.146 355.176 180.223 358.006 178.993 360.726C177.806 363.447 176.181 365.86 174.116 367.966C173.676 367.484 173.105 366.957 172.402 366.387C171.699 365.816 170.952 365.246 170.161 364.676C169.414 364.149 168.755 363.732 168.184 363.425C169.942 361.494 171.326 359.344 172.336 356.975C173.391 354.605 174.182 352.126 174.709 349.537C175.236 346.904 175.588 344.315 175.763 341.77C175.939 339.225 176.027 336.834 176.027 334.596V312.349ZM144.194 308.795H168.25V315.903H144.194V308.795ZM151.641 329.067H167.459V359.476H151.641V352.565H160.737V336.044H151.641V329.067ZM151.905 312.283L159.023 313.863C158.232 318.031 157.221 322.178 155.991 326.303C154.761 330.427 153.289 334.289 151.575 337.887C149.862 341.485 147.863 344.644 145.578 347.365C145.49 346.663 145.292 345.719 144.985 344.535C144.677 343.35 144.326 342.165 143.93 340.98C143.535 339.752 143.161 338.764 142.81 338.019C145.139 334.903 147.028 331.085 148.478 326.566C149.928 322.046 151.07 317.285 151.905 312.283ZM148.214 329.067H154.739V364.346H148.214V329.067Z" fill="black"/>
<path d="M214.649 340.454H253.138V347.76H214.649V340.454ZM248.788 340.454H257.093V356.909C257.093 357.962 257.203 358.62 257.422 358.883C257.642 359.147 258.081 359.278 258.74 359.278C258.916 359.278 259.158 359.278 259.465 359.278C259.773 359.278 260.102 359.278 260.454 359.278C260.849 359.278 261.201 359.278 261.508 359.278C261.86 359.278 262.124 359.278 262.299 359.278C262.783 359.278 263.156 359.081 263.42 358.686C263.683 358.247 263.859 357.348 263.947 355.987C264.079 354.627 264.189 352.565 264.277 349.8C264.848 350.283 265.573 350.744 266.451 351.182C267.33 351.621 268.253 352.016 269.22 352.367C270.186 352.718 271.021 353.003 271.724 353.223C271.504 356.821 271.065 359.629 270.406 361.648C269.791 363.666 268.912 365.07 267.77 365.86C266.627 366.65 265.089 367.045 263.156 367.045C262.805 367.045 262.365 367.045 261.838 367.045C261.311 367.045 260.761 367.045 260.19 367.045C259.619 367.045 259.07 367.045 258.543 367.045C258.015 367.045 257.598 367.045 257.29 367.045C255.137 367.045 253.424 366.738 252.15 366.124C250.919 365.509 250.041 364.478 249.513 363.03C249.03 361.582 248.788 359.564 248.788 356.975V340.454ZM236.266 305.569H244.439V316.035H236.266V305.569ZM228.291 316.693H236.596C236.288 319.501 235.783 322.046 235.08 324.328C234.377 326.566 233.256 328.562 231.718 330.318C230.181 332.073 228.05 333.609 225.325 334.925C222.601 336.197 219.064 337.251 214.714 338.084C214.363 337.119 213.792 336 213.001 334.728C212.21 333.455 211.419 332.446 210.628 331.7C214.363 331.085 217.329 330.34 219.526 329.462C221.766 328.584 223.48 327.553 224.666 326.368C225.853 325.14 226.688 323.736 227.171 322.156C227.698 320.532 228.072 318.711 228.291 316.693ZM243.714 317.022H251.556V327.29C251.556 328.167 251.688 328.716 251.952 328.935C252.216 329.111 252.831 329.199 253.797 329.199C254.017 329.199 254.347 329.199 254.786 329.199C255.269 329.199 255.796 329.199 256.368 329.199C256.939 329.199 257.466 329.199 257.949 329.199C258.477 329.199 258.872 329.199 259.136 329.199C259.663 329.199 260.058 329.111 260.322 328.935C260.586 328.716 260.783 328.277 260.915 327.619C261.047 326.961 261.157 325.973 261.245 324.657C261.728 325.052 262.365 325.447 263.156 325.842C263.991 326.193 264.848 326.522 265.726 326.829C266.605 327.092 267.396 327.29 268.099 327.422C267.836 329.747 267.396 331.546 266.781 332.819C266.21 334.047 265.375 334.925 264.277 335.452C263.178 335.934 261.75 336.176 259.993 336.176C259.597 336.176 259.048 336.176 258.345 336.176C257.686 336.176 256.983 336.176 256.236 336.176C255.489 336.176 254.786 336.176 254.127 336.176C253.468 336.176 252.941 336.176 252.545 336.176C250.172 336.176 248.327 335.912 247.009 335.386C245.735 334.815 244.856 333.894 244.373 332.621C243.933 331.305 243.714 329.55 243.714 327.356V317.022ZM211.946 311.362H269.154V324.262H260.849V318.404H219.921V324.855H211.946V311.362ZM232.048 333.214H239.957V341.836C239.957 343.723 239.781 345.632 239.43 347.562C239.078 349.493 238.397 351.424 237.386 353.355C236.376 355.285 234.948 357.15 233.102 358.949C231.257 360.704 228.841 362.328 225.853 363.82C222.909 365.356 219.262 366.672 214.912 367.769C214.341 366.804 213.528 365.707 212.474 364.478C211.463 363.249 210.518 362.196 209.64 361.319C213.55 360.353 216.823 359.256 219.46 358.028C222.14 356.799 224.315 355.527 225.985 354.21C227.654 352.85 228.906 351.468 229.741 350.064C230.62 348.615 231.213 347.189 231.521 345.785C231.872 344.337 232.048 342.955 232.048 341.639V333.214Z" fill="black"/>
<path d="M276.667 308.926H305.93V316.035H276.667V308.926ZM311.334 327.948H337.236V335.583H311.334V327.948ZM323.527 333.279H331.304V367.506H323.527V333.279ZM308.237 311.559L317.727 313.731C317.639 314.389 317.046 314.806 315.948 314.982V329.923C315.948 332.599 315.816 335.561 315.552 338.808C315.289 342.012 314.739 345.325 313.905 348.747C313.114 352.126 311.905 355.417 310.28 358.62C308.698 361.823 306.589 364.741 303.953 367.374C303.645 366.804 303.14 366.167 302.437 365.465C301.734 364.763 300.987 364.083 300.196 363.425C299.449 362.811 298.768 362.35 298.153 362.043C300.438 359.717 302.239 357.194 303.557 354.473C304.919 351.753 305.93 348.967 306.589 346.114C307.292 343.262 307.731 340.454 307.907 337.689C308.127 334.881 308.237 332.248 308.237 329.791V311.559ZM278.776 321.037H286.29V337.887C286.29 340.081 286.224 342.494 286.092 345.127C285.96 347.716 285.674 350.349 285.235 353.025C284.796 355.702 284.18 358.291 283.39 360.792C282.599 363.293 281.566 365.553 280.292 367.572C279.897 367.089 279.303 366.54 278.512 365.926C277.722 365.312 276.909 364.719 276.074 364.149C275.283 363.579 274.624 363.14 274.097 362.833C275.547 360.463 276.601 357.83 277.26 354.934C277.919 351.994 278.337 349.054 278.512 346.114C278.688 343.131 278.776 340.366 278.776 337.821V321.037ZM329.92 306.293L336.84 312.217C334.512 313.358 331.963 314.433 329.195 315.442C326.427 316.408 323.615 317.285 320.759 318.075C317.903 318.865 315.113 319.589 312.389 320.247C312.213 319.326 311.839 318.251 311.268 317.022C310.741 315.749 310.236 314.718 309.752 313.928C312.213 313.27 314.673 312.546 317.134 311.756C319.638 310.967 321.989 310.111 324.186 309.189C326.427 308.224 328.338 307.259 329.92 306.293ZM283.126 321.037H304.612V343.482H283.126V336.439H296.966V328.08H283.126V321.037Z" fill="black"/>
<path d="M50.079 378.155V381.555H45.1869V395.759H40.9937V381.555H36.1017V378.155H50.079Z" fill="black"/>
<path d="M63.3246 388.163H57.2276V395.759H53.1309V378.155H57.2276V385.052H63.3246V378.155H67.4214V395.759H63.3246V388.163Z" fill="black"/>
<path d="M75.1841 381.459V385.052H81.8594V388.163H75.1841V392.455H82.3414V395.759H71.0873V378.155H82.3414V381.459H75.1841Z" fill="black"/>
<path d="M97.4735 378.155V392.359H104.896V395.759H93.2563V378.155H97.4735Z" fill="black"/>
<path d="M106.995 395.759L112.948 378.155H117.286L123.214 395.759H118.876L117.84 391.949H112.273L111.261 395.759H106.995ZM113.116 388.838H117.02L115.093 381.7H115.044L113.116 388.838Z" fill="black"/>
<path d="M129.687 385.124H130.482C132.828 385.124 134.001 384.425 134.001 383.026C134.001 381.692 133.013 381.025 131.037 381.025C130.539 381.025 130.089 381.073 129.687 381.169V385.124ZM129.687 388.066V392.745C130.153 392.841 130.635 392.889 131.133 392.889C132.274 392.889 133.109 392.68 133.639 392.262C134.169 391.828 134.434 391.169 134.434 390.285C134.434 388.806 133.222 388.066 130.796 388.066H129.687ZM138.266 390.695C138.266 392.495 137.68 393.83 136.507 394.698C135.334 395.566 133.487 396 130.964 396C129.101 396 127.333 395.879 125.663 395.638V378.276C127.253 378.034 128.94 377.914 130.723 377.914C135.382 377.914 137.712 379.417 137.712 382.423C137.712 383.436 137.383 384.304 136.724 385.028C136.065 385.751 135.19 386.201 134.097 386.378V386.426C135.382 386.587 136.395 387.061 137.134 387.849C137.889 388.637 138.266 389.585 138.266 390.695Z" fill="black"/>
<path d="M152.35 385.124H153.145C155.491 385.124 156.664 384.425 156.664 383.026C156.664 381.692 155.676 381.025 153.7 381.025C153.202 381.025 152.752 381.073 152.35 381.169V385.124ZM152.35 388.066V392.745C152.816 392.841 153.298 392.889 153.796 392.889C154.937 392.889 155.772 392.68 156.302 392.262C156.833 391.828 157.098 391.169 157.098 390.285C157.098 388.806 155.885 388.066 153.459 388.066H152.35ZM160.929 390.695C160.929 392.495 160.343 393.83 159.17 394.698C157.997 395.566 156.15 396 153.627 396C151.764 396 149.997 395.879 148.326 395.638V378.276C149.916 378.034 151.603 377.914 153.386 377.914C158.046 377.914 160.375 379.417 160.375 382.423C160.375 383.436 160.046 384.304 159.387 385.028C158.728 385.751 157.853 386.201 156.76 386.378V386.426C158.046 386.587 159.058 387.061 159.797 387.849C160.552 388.637 160.929 389.585 160.929 390.695Z" fill="black"/>
<path d="M165.89 378.155L169.312 385.703H169.36L172.782 378.155H177.361L171.385 389.007V395.759H167.167V389.007L161.215 378.155H165.89Z" fill="black"/>
<path d="M188.506 380.349C190.128 378.726 192.297 377.914 195.012 377.914C197.728 377.914 199.888 378.726 201.495 380.349C203.118 381.973 203.929 384.176 203.929 386.957C203.929 389.738 203.118 391.941 201.495 393.564C199.888 395.188 197.728 396 195.012 396C192.297 396 190.128 395.188 188.506 393.564C186.899 391.941 186.096 389.738 186.096 386.957C186.096 384.176 186.899 381.973 188.506 380.349ZM191.518 391.177C192.354 392.142 193.518 392.624 195.012 392.624C196.507 392.624 197.663 392.142 198.483 391.177C199.318 390.212 199.736 388.806 199.736 386.957C199.736 385.108 199.318 383.701 198.483 382.737C197.663 381.772 196.507 381.29 195.012 381.29C193.518 381.29 192.354 381.772 191.518 382.737C190.699 383.701 190.289 385.108 190.289 386.957C190.289 388.806 190.699 390.212 191.518 391.177Z" fill="black"/>
<path d="M210.526 389.248V395.759H206.502V378.276C208.269 378.034 210.197 377.914 212.285 377.914C214.695 377.914 216.487 378.372 217.659 379.288C218.848 380.189 219.443 381.475 219.443 383.147C219.443 384.224 219.129 385.197 218.503 386.065C217.876 386.917 217.049 387.528 216.021 387.897V387.946C216.856 388.412 217.539 389.368 218.069 390.815L219.925 395.759H215.707L214.045 390.984C213.82 390.309 213.547 389.851 213.225 389.61C212.904 389.368 212.406 389.248 211.731 389.248H210.526ZM210.526 386.233H211.876C213 386.233 213.86 386 214.454 385.534C215.049 385.052 215.346 384.385 215.346 383.533C215.346 381.861 214.245 381.025 212.044 381.025C211.466 381.025 210.96 381.073 210.526 381.169V386.233Z" fill="black"/>
<path d="M237.009 386.716C237.009 389.674 236.19 391.965 234.551 393.589C232.929 395.196 230.639 396 227.683 396C225.9 396 224.213 395.879 222.622 395.638V378.276C224.213 378.034 225.9 377.914 227.683 377.914C230.639 377.914 232.929 378.694 234.551 380.253C236.19 381.796 237.009 383.951 237.009 386.716ZM233.105 386.716C233.105 382.986 231.402 381.121 227.996 381.121C227.531 381.121 227.081 381.169 226.647 381.266V392.648C227.081 392.745 227.531 392.793 227.996 392.793C231.402 392.793 233.105 390.767 233.105 386.716Z" fill="black"/>
<path d="M239.952 395.759V378.155H244.458V395.759H239.952Z" fill="black"/>
<path d="M248.486 395.759V378.155H252.487L258.728 388.958H258.776V378.155H262.777V395.759H258.776L252.535 384.955H252.487V395.759H248.486Z" fill="black"/>
<path d="M265.238 395.759L271.19 378.155H275.528L281.456 395.759H277.118L276.082 391.949H270.515L269.503 395.759H265.238ZM271.359 388.838H275.263L273.335 381.7H273.287L271.359 388.838Z" fill="black"/>
<path d="M287.929 389.248V395.759H283.905V378.276C285.672 378.034 287.6 377.914 289.689 377.914C292.098 377.914 293.89 378.372 295.063 379.288C296.252 380.189 296.846 381.475 296.846 383.147C296.846 384.224 296.533 385.197 295.906 386.065C295.28 386.917 294.452 387.528 293.424 387.897V387.946C294.259 388.412 294.942 389.368 295.472 390.815L297.328 395.759H293.111L291.448 390.984C291.223 390.309 290.95 389.851 290.628 389.61C290.307 389.368 289.809 389.248 289.134 389.248H287.929ZM287.929 386.233H289.279C290.404 386.233 291.263 386 291.858 385.534C292.452 385.052 292.749 384.385 292.749 383.533C292.749 381.861 291.649 381.025 289.448 381.025C288.869 381.025 288.363 381.073 287.929 381.169V386.233Z" fill="black"/>
<path d="M302.175 378.155L305.597 385.703H305.645L309.067 378.155H313.646L307.67 389.007V395.759H303.452V389.007L297.5 378.155H302.175Z" fill="black"/>
<path d="M332.021 381.218C330.334 381.218 329 381.724 328.02 382.737C327.056 383.75 326.574 385.156 326.574 386.957C326.574 388.725 327.08 390.124 328.092 391.153C329.105 392.182 330.414 392.696 332.021 392.696C333.418 392.696 334.8 392.254 336.166 391.37L337.322 394.36C335.716 395.453 333.812 396 331.611 396C328.815 396 326.574 395.188 324.887 393.564C323.216 391.941 322.381 389.738 322.381 386.957C322.381 384.144 323.192 381.933 324.815 380.325C326.454 378.718 328.719 377.914 331.611 377.914C333.812 377.914 335.716 378.46 337.322 379.554L336.166 382.544C334.8 381.66 333.418 381.218 332.021 381.218Z" fill="black"/>
<path d="M341.359 380.349C342.982 378.726 345.15 377.914 347.866 377.914C350.581 377.914 352.741 378.726 354.348 380.349C355.971 381.973 356.782 384.176 356.782 386.957C356.782 389.738 355.971 391.941 354.348 393.564C352.741 395.188 350.581 396 347.866 396C345.15 396 342.982 395.188 341.359 393.564C339.752 391.941 338.949 389.738 338.949 386.957C338.949 384.176 339.752 381.973 341.359 380.349ZM344.371 391.177C345.207 392.142 346.371 392.624 347.866 392.624C349.36 392.624 350.516 392.142 351.336 391.177C352.171 390.212 352.589 388.806 352.589 386.957C352.589 385.108 352.171 383.701 351.336 382.737C350.516 381.772 349.36 381.29 347.866 381.29C346.371 381.29 345.207 381.772 344.371 382.737C343.552 383.701 343.142 385.108 343.142 386.957C343.142 388.806 343.552 390.212 344.371 391.177Z" fill="black"/>
<path d="M373.212 384.98H373.163L370.079 391.732H366.368L363.283 384.98H363.235V395.759H359.355V378.155H363.548L368.199 388.524H368.247L372.898 378.155H377.188V395.759H373.212V384.98Z" fill="black"/>
<path d="M380.841 378.276C382.512 378.034 384.279 377.914 386.143 377.914C391.284 377.914 393.855 379.827 393.855 383.653C393.855 385.727 393.252 387.303 392.047 388.38C390.858 389.441 389.107 389.971 386.794 389.971C386.215 389.971 385.573 389.939 384.866 389.875V395.759H380.841V378.276ZM384.866 386.836C385.38 386.917 385.886 386.957 386.384 386.957C387.541 386.957 388.432 386.692 389.059 386.161C389.702 385.615 390.023 384.859 390.023 383.894C390.023 381.981 388.81 381.025 386.384 381.025C385.854 381.025 385.348 381.073 384.866 381.169V386.836Z" fill="black"/>
<path d="M393.404 395.759L399.356 378.155H403.694L409.622 395.759H405.284L404.248 391.949H398.681L397.669 395.759H393.404ZM399.525 388.838H403.429L401.501 381.7H401.453L399.525 388.838Z" fill="black"/>
<path d="M412.071 395.759V378.155H416.071L422.313 388.958H422.361V378.155H426.361V395.759H422.361L416.119 384.955H416.071V395.759H412.071Z" fill="black"/>
<path d="M433.377 378.155L436.799 385.703H436.847L440.269 378.155H444.848L438.872 389.007V395.759H434.654V389.007L428.702 378.155H433.377Z" fill="black"/>
<path d="M306.229 242.13C306.689 242.36 307.12 242.623 307.156 242.985C307.204 243.43 306.886 243.869 306.404 244.099L280.155 256.449C279.516 256.748 278.884 256.719 278.277 256.478L271.918 253.965C271.359 253.742 270.837 253.549 270.413 254.151L275.33 258.651C275.476 258.787 275.669 259.181 275.68 259.371C275.695 259.598 275.414 260.087 275.151 260.211L242.812 275.294C241.242 276.024 240.084 275.973 238.528 275.25L206.222 260.156C205.999 260.054 205.711 259.576 205.718 259.371C205.725 259.167 205.93 258.776 206.135 258.586L210.715 254.363C210.836 254.254 210.865 253.943 210.777 253.87C210.664 253.779 210.251 253.695 210.102 253.753L203.099 256.511C202.438 256.77 201.894 256.705 201.24 256.398L174.753 243.909C174.52 243.799 174.3 243.215 174.352 242.985C174.41 242.714 174.786 242.4 175.122 242.236L184.276 237.666L172.507 233.56C172.259 233.473 171.886 233.133 171.784 232.932C171.663 232.698 171.864 232.128 172.105 231.898L183.166 221.294L183.973 220.973L184.758 217.097C185.094 215.435 185.967 211.863 188.064 211.852C188.137 211.337 188.207 210.654 188.331 210.091L190.161 201.825L193.737 198.742L188.294 190.571C187.925 190.015 187.443 189.128 187.443 188.43L187.436 171.313C187.436 170.601 187.958 169.826 188.4 169.498C189.007 169.045 189.869 168.906 190.658 169.154L209.294 175.006C210.39 175.349 211.077 176.31 211.774 177.11L216.673 182.728L218.083 182.235L217.02 180.511C216.947 180.394 216.859 180.043 216.885 179.908C216.918 179.736 217.232 179.484 217.429 179.422L226.93 176.39H254.461L264.273 179.448C264.791 179.609 264.773 180.31 264.517 180.672L263.505 182.096C263.827 182.447 264.441 182.684 264.93 182.651L270.57 176.226C271.114 175.605 271.812 175.134 272.637 174.878L291.11 169.118C292.684 168.628 294.101 170.049 294.101 171.466V188.236C294.101 189.424 293.323 190.472 292.71 191.396L287.84 198.702L291.442 201.902L293.122 209.627L293.502 211.815C295.614 212.228 296.308 215.125 296.706 216.977L297.535 220.808L298.258 221.258L309.301 231.807C309.578 232.074 309.805 232.527 309.761 232.782C309.717 233.038 309.337 233.469 309.056 233.568L297.294 237.655L306.236 242.152L306.229 242.13Z" fill="black"/>
<path d="M250.794 264.361C249.077 264.259 242.904 265.08 242.564 263.17C242.359 262.016 242.432 260.891 242.341 259.656L239.017 259.663L238.955 262.816C238.94 263.634 238.137 264.218 237.297 264.291C235.116 264.478 233.037 264.445 230.773 264.386L213.86 251.105C214.598 249.83 215.555 249.213 216.435 248.321L218.594 246.141L232.65 234.441L235.105 232.56L238.213 241.83L243.243 241.805L246.367 232.538L247.813 233.776C249.04 234.832 250.322 235.748 251.393 236.968C252.178 237.863 253.256 238.357 254.18 239.138L260.959 244.888C262.059 245.819 263.14 246.597 264.189 247.54C265.434 248.657 266.705 249.454 267.56 251.09C266.881 251.748 266.198 252.412 265.394 253.033L250.79 264.364L250.794 264.361Z" fill="white"/>
<path d="M270.124 235.712L262.388 235.756L257.5 231.007L257.511 226.518L262.055 221.977L270.172 221.944L274.84 226.587L274.866 230.974L270.124 235.712Z" fill="white"/>
<path d="M217.228 237.462L211.833 237.465L211.796 231.234L205.083 231.212L205.072 226.032L211.793 226.003L211.844 219.815L217.228 219.862L217.272 226.017L223.989 226.025L224.03 231.19L217.287 231.248L217.228 237.462Z" fill="white"/>
<path d="M245.859 257.362L236.157 257.377C235.609 257.377 234.539 257.22 234.203 256.814L232.669 251.715C232.508 251.178 232.241 250.287 232.628 249.819C233.728 248.489 234.835 247.058 235.803 245.666C235.985 245.406 236.774 245.195 237.096 245.195L244.533 245.213C245.34 245.213 245.698 245.706 246.082 246.269C246.878 247.434 247.718 248.453 248.646 249.545C248.971 249.929 249.113 250.561 248.967 251.054L247.382 256.496C247.247 256.957 246.472 257.358 245.859 257.362Z" fill="black"/>
<path d="M112.162 219.968C111.577 218.43 111.816 216.739 112.876 214.895C113.936 213.051 115.275 212.002 116.891 211.746C118.514 211.478 120.573 212.062 123.069 213.497C125.565 214.933 127.105 216.42 127.689 217.957C128.281 219.483 128.046 221.167 126.986 223.011C125.926 224.855 124.584 225.911 122.961 226.179C121.345 226.434 119.289 225.845 116.793 224.409C114.297 222.973 112.753 221.493 112.162 219.968ZM122.561 222.694C123.46 222.727 124.126 222.368 124.559 221.615C124.992 220.862 124.964 220.112 124.477 219.364C123.996 218.604 122.903 217.733 121.197 216.752C119.491 215.771 118.189 215.264 117.29 215.231C116.398 215.185 115.736 215.539 115.303 216.291C114.87 217.044 114.894 217.8 115.375 218.561C115.862 219.309 116.959 220.173 118.665 221.154C120.371 222.135 121.669 222.649 122.561 222.694Z" fill="white"/>
<path d="M117.343 207.565L122.894 197.914L125.471 199.396C126.621 201.46 127.829 203.364 129.095 205.111C130.36 206.857 131.912 208.759 133.749 210.817L131.78 214.241C128.575 210.411 125.916 206.487 123.804 202.468L123.729 202.425L119.92 209.047L117.343 207.565Z" fill="white"/>
<path d="M133.873 200.764L131.465 199.379L135.112 193.039L137.52 194.424L133.873 200.764Z" fill="white"/>
<path d="M140.801 192.593C140.329 189.033 139.852 186.597 139.371 185.285C138.885 183.954 138.203 183.036 137.325 182.531C136.171 181.867 135.226 182.175 134.49 183.454C133.899 184.483 133.65 185.959 133.746 187.883L130.722 187.221C130.663 186.336 130.762 185.366 131.018 184.311C131.269 183.237 131.632 182.286 132.108 181.458C132.981 179.941 134.016 178.983 135.212 178.587C136.396 178.183 137.627 178.348 138.907 179.084C140.01 179.719 140.868 180.68 141.48 181.967C142.087 183.234 142.652 185.37 143.177 188.376L143.214 188.397L146.212 183.186L148.789 184.668L143.379 194.075L140.801 192.593Z" fill="white"/>
<path d="M138.453 174.257C137.869 172.719 138.107 171.028 139.168 169.185C140.228 167.341 141.566 166.291 143.182 166.036C144.805 165.767 146.865 166.351 149.361 167.787C151.857 169.222 153.397 170.709 153.981 172.247C154.573 173.772 154.338 175.457 153.278 177.3C152.217 179.144 150.875 180.2 149.252 180.468C147.636 180.724 145.58 180.134 143.085 178.698C140.589 177.263 139.045 175.782 138.453 174.257ZM148.853 176.984C149.752 177.017 150.418 176.657 150.851 175.905C151.284 175.152 151.256 174.402 150.768 173.654C150.288 172.893 149.194 172.022 147.489 171.041C145.783 170.06 144.481 169.553 143.582 169.52C142.69 169.475 142.027 169.828 141.595 170.581C141.162 171.333 141.186 172.09 141.666 172.85C142.154 173.598 143.251 174.463 144.957 175.444C146.662 176.425 147.961 176.938 148.853 176.984Z" fill="white"/>
<path d="M154.877 168.121C154.404 164.56 153.928 162.125 153.447 160.813C152.961 159.482 152.279 158.564 151.401 158.059C150.247 157.395 149.302 157.703 148.566 158.982C147.974 160.011 147.726 161.487 147.821 163.411L144.797 162.749C144.739 161.864 144.838 160.894 145.094 159.839C145.344 158.765 145.708 157.814 146.184 156.986C147.057 155.469 148.091 154.511 149.288 154.115C150.472 153.711 151.703 153.876 152.982 154.612C154.086 155.247 154.944 156.208 155.556 157.495C156.163 158.762 156.728 160.898 157.253 163.904L157.29 163.925L160.288 158.714L162.865 160.196L157.455 169.603L154.877 168.121Z" fill="white"/>
<path d="M158.454 142.052L155.306 147.526L157.788 149.13L157.81 149.092C157.891 148.371 158.112 147.697 158.473 147.069C159.281 145.665 160.281 144.796 161.473 144.464C162.666 144.132 163.946 144.359 165.313 145.145C168.549 147.006 169.059 149.862 166.845 153.713C166.037 155.117 165.016 156.283 163.782 157.209L161.621 155.09C162.862 154.151 163.731 153.249 164.229 152.383C165.29 150.54 165.049 149.174 163.506 148.287C162.252 147.566 161.264 147.832 160.542 149.086C160.225 149.638 160.15 150.321 160.316 151.134L158.747 153.862L151.062 148.941L155.877 140.569L158.454 142.052Z" fill="white"/>
<path d="M324.649 144.136L321.846 145.749L324.844 150.96L322.417 152.356L319.419 147.145L316.071 149.071L319.285 154.659L316.708 156.141L311.654 147.356L325.387 139.456L330.441 148.241L327.863 149.724L324.649 144.136Z" fill="white"/>
<path d="M326.277 160.937L326.255 160.899L319.839 161.585L317.815 158.067L326.908 157.769L331.603 150.261L333.627 153.779L329.985 158.853L330.007 158.891L336.224 158.294L338.204 161.737L329.354 162.021L324.525 169.731L322.458 166.138L326.277 160.937Z" fill="white"/>
<path d="M339.381 163.999C340.319 165.195 341.207 166.521 342.044 167.976C344.352 171.989 344.014 174.854 341.029 176.572C339.411 177.502 337.912 177.739 336.53 177.282C335.169 176.83 333.968 175.701 332.929 173.895C332.67 173.443 332.406 172.927 332.139 172.347L327.549 174.987L325.741 171.845L339.381 163.999ZM334.509 170.983C334.678 171.42 334.873 171.833 335.097 172.222C335.617 173.125 336.224 173.702 336.919 173.953C337.634 174.21 338.368 174.121 339.12 173.689C340.613 172.83 340.814 171.454 339.725 169.56C339.487 169.146 339.222 168.773 338.93 168.44L334.509 170.983Z" fill="white"/>
<path d="M336.555 180.806L338.963 179.421L342.61 185.761L340.202 187.146L336.555 180.806Z" fill="white"/>
<path d="M350.126 185.857C351.749 186.125 353.091 187.181 354.152 189.024C355.212 190.868 355.447 192.552 354.856 194.078C354.271 195.616 352.731 197.102 350.236 198.538C347.74 199.974 345.68 200.558 344.057 200.29C342.441 200.034 341.103 198.984 340.042 197.141C338.982 195.297 338.744 193.606 339.328 192.069C339.919 190.543 341.463 189.063 343.959 187.627C346.455 186.191 348.51 185.601 350.126 185.857ZM342.541 193.475C342.06 194.236 342.036 194.992 342.469 195.745C342.902 196.497 343.564 196.851 344.456 196.805C345.355 196.772 346.658 196.265 348.363 195.284C350.069 194.302 351.162 193.432 351.643 192.671C352.13 191.923 352.158 191.173 351.725 190.42C351.292 189.668 350.626 189.308 349.727 189.341C348.835 189.387 347.537 189.9 345.831 190.881C344.125 191.863 343.029 192.727 342.541 193.475Z" fill="white"/>
<path d="M358.243 196.571L363.794 206.222L361.217 207.704C358.855 207.661 356.601 207.747 354.456 207.963C352.31 208.18 349.886 208.564 347.183 209.118L345.213 205.694C350.135 204.849 354.864 204.524 359.4 204.719L359.475 204.676L355.665 198.053L358.243 196.571Z" fill="white"/>
<path d="M353.842 220.695L363.87 214.927L363.848 214.889L359.273 213.465L361.408 210.909L367.576 212.795L369.48 216.106L355.747 224.006L353.842 220.695Z" fill="white"/>
</svg>
