<svg xmlns="http://www.w3.org/2000/svg" viewBox="-340.25 -31.62 680.50 352.88" width="680" height="353" fill="#FFFFFF">
  <title>The Ordinary Company</title>
  <path transform="translate(-28.02 42.73)" d="M3.2 0.7000000000000001Q2.8000000000000003 0.7000000000000001 2.3000000000000003 0.37500000000000006Q1.8 0.05 1.475 -0.375Q1.1500000000000001 -0.8 1.1500000000000001 -1.1500000000000001Q1.1500000000000001 -2.0 1.375 -2.6Q1.6 -3.2 1.85 -3.95L6.6000000000000005 -17.3Q6.7 -17.650000000000002 6.525 -17.775000000000002Q6.3500000000000005 -17.900000000000002 6.1000000000000005 -17.900000000000002L4.1000000000000005 -18.0Q3.45 -18.05 3.325 -18.275Q3.2 -18.5 3.2 -18.7Q3.2 -18.8 3.45 -19.075000000000003Q3.7 -19.35 4.075 -19.625Q4.45 -19.900000000000002 4.9 -19.900000000000002H6.7Q7.25 -19.900000000000002 7.45 -20.075000000000003Q7.65 -20.25 7.9 -20.8L9.1 -23.25Q9.3 -23.650000000000002 9.850000000000001 -24.175000000000004Q10.4 -24.700000000000003 10.975000000000001 -25.1Q11.55 -25.5 11.8 -25.5Q12.200000000000001 -25.5 12.3 -24.950000000000003Q12.4 -24.400000000000002 12.200000000000001 -23.900000000000002L10.9 -20.55Q10.8 -20.200000000000003 10.975000000000001 -20.1Q11.15 -20.0 11.55 -20.0Q12.55 -20.0 13.600000000000001 -19.85Q14.65 -19.700000000000003 15.3 -19.6Q16.1 -19.450000000000003 16.275 -19.275000000000002Q16.45 -19.1 16.45 -18.85Q16.45 -18.75 16.25 -18.525Q16.05 -18.3 15.5 -18.25Q14.4 -18.2 13.4 -18.125Q12.4 -18.05 11.3 -18.0Q10.5 -17.95 10.175 -17.75Q9.850000000000001 -17.55 9.75 -17.25L5.300000000000001 -4.95Q5.1000000000000005 -4.3500000000000005 5.1000000000000005 -3.9000000000000004Q5.1000000000000005 -3.45 5.375 -3.2Q5.65 -2.95 6.2 -2.95Q6.9 -2.95 7.7 -3.45Q8.5 -3.95 9.25 -4.6Q10.0 -5.25 10.5 -5.75Q11.05 -6.300000000000001 11.450000000000001 -6.25Q11.850000000000001 -6.2 11.850000000000001 -5.9Q11.850000000000001 -5.550000000000001 11.600000000000001 -5.125Q11.350000000000001 -4.7 10.950000000000001 -4.25Q10.15 -3.4000000000000004 9.275 -2.6500000000000004Q8.4 -1.9000000000000001 7.4750000000000005 -1.2750000000000001Q6.550000000000001 -0.65 5.7250000000000005 -0.225Q4.9 0.2 4.25 0.45000000000000007Q3.6 0.7000000000000001 3.2 0.7000000000000001ZM17.400000000000002 0.9Q17.150000000000002 0.9 16.950000000000003 0.7Q16.75 0.5 16.65 0.2Q16.55 -0.1 16.55 -0.4Q16.55 -1.1500000000000001 16.725 -1.9000000000000004Q16.900000000000002 -2.6500000000000004 17.200000000000003 -3.75L24.25 -27.900000000000002Q24.5 -28.75 24.75 -29.775Q25.0 -30.8 25.0 -31.3Q25.0 -31.8 24.375 -32.050000000000004Q23.75 -32.300000000000004 23.150000000000002 -32.5Q22.800000000000004 -32.6 22.525000000000002 -32.725Q22.25 -32.85 22.25 -33.050000000000004Q22.25 -33.25 22.4 -33.425Q22.55 -33.6 23.1 -33.800000000000004Q23.5 -33.95 24.225 -34.2Q24.950000000000003 -34.45 25.775000000000002 -34.725Q26.6 -35.0 27.275000000000002 -35.175Q27.950000000000003 -35.35 28.200000000000003 -35.35Q28.450000000000003 -35.35 28.750000000000004 -35.3Q29.050000000000004 -35.25 29.050000000000004 -34.85Q29.050000000000004 -34.45 28.975 -34.150000000000006Q28.900000000000002 -33.85 28.800000000000004 -33.5L22.0 -10.0Q21.900000000000002 -9.65 22.025000000000002 -9.65Q22.150000000000002 -9.65 22.3 -9.850000000000001Q24.5 -13.100000000000001 26.85 -15.625000000000002Q29.200000000000003 -18.150000000000002 31.300000000000004 -19.6Q33.400000000000006 -21.05 34.900000000000006 -21.05Q36.550000000000004 -21.05 37.425000000000004 -19.950000000000003Q38.300000000000004 -18.85 38.300000000000004 -17.400000000000002Q38.300000000000004 -14.850000000000001 37.375 -12.0Q36.45 -9.15 34.95 -6.550000000000001Q33.45 -3.95 31.700000000000003 -2.1Q31.400000000000002 -1.8 30.800000000000004 -1.3250000000000002Q30.200000000000003 -0.8500000000000001 29.400000000000002 -0.4Q28.6 0.05 27.775000000000002 0.37500000000000006Q26.950000000000003 0.7000000000000001 26.25 0.7000000000000001Q25.900000000000002 0.7000000000000001 25.425000000000004 0.4Q24.950000000000003 0.1 24.625000000000004 -0.35000000000000003Q24.300000000000004 -0.8 24.300000000000004 -1.1500000000000001Q24.300000000000004 -1.4000000000000001 24.500000000000004 -1.75Q24.700000000000003 -2.1 25.000000000000004 -2.35Q25.300000000000004 -2.6 25.6 -2.6Q26.050000000000004 -2.6 26.375000000000004 -2.425Q26.700000000000003 -2.25 26.950000000000003 -2.0Q27.25 -1.75 27.55 -1.55Q27.85 -1.35 28.25 -1.35Q29.1 -1.35 30.050000000000004 -2.35Q31.000000000000004 -3.35 31.875 -5.0Q32.75 -6.65 33.45 -8.625Q34.150000000000006 -10.600000000000001 34.575 -12.600000000000001Q35.0 -14.600000000000001 35.0 -16.3Q35.0 -17.45 34.525000000000006 -18.075Q34.050000000000004 -18.7 33.1 -18.7Q32.0 -18.7 30.625 -17.625Q29.25 -16.55 27.775000000000002 -14.8Q26.300000000000004 -13.05 24.900000000000002 -11.05Q23.5 -9.05 22.35 -7.15Q21.200000000000003 -5.25 20.5 -3.9000000000000004Q19.25 -1.5 18.625 -0.3Q18.0 0.9 17.400000000000002 0.9ZM44.3 0.75Q43.25 0.75 42.175 -0.050000000000000044Q41.1 -0.8500000000000001 40.400000000000006 -2.075Q39.7 -3.3000000000000003 39.7 -4.45Q39.7 -6.95 40.725 -9.775Q41.75 -12.600000000000001 43.55 -15.075000000000001Q45.35 -17.55 47.725 -19.125Q50.1 -20.700000000000003 52.75 -20.700000000000003Q54.5 -20.700000000000003 55.475 -19.975Q56.45 -19.25 56.45 -17.95Q56.45 -16.400000000000002 55.475 -15.250000000000002Q54.5 -14.100000000000001 52.85 -13.275000000000002Q51.2 -12.450000000000001 49.175 -11.900000000000002Q47.15 -11.350000000000001 45.05 -10.950000000000001Q44.75 -10.9 44.575 -10.825Q44.4 -10.75 44.3 -10.450000000000001Q43.95 -9.35 43.6 -8.05Q43.25 -6.75 43.25 -5.6000000000000005Q43.25 -3.85 43.925 -2.9000000000000004Q44.6 -1.9500000000000002 45.9 -1.9500000000000002Q47.7 -1.9500000000000002 48.95 -2.85Q50.2 -3.75 51.0 -4.65Q51.5 -5.2 51.9 -5.2Q52.4 -5.2 52.4 -4.7Q52.4 -4.65 52.4 -4.525Q52.4 -4.4 52.3 -4.3Q51.3 -2.6500000000000004 50.05 -1.5250000000000001Q48.8 -0.4 47.375 0.175Q45.95 0.75 44.3 0.75ZM45.4 -12.100000000000001Q45.95 -12.100000000000001 47.275000000000006 -12.425Q48.6 -12.75 50.05 -13.475000000000001Q51.5 -14.200000000000001 52.525 -15.275000000000002Q53.55 -16.35 53.55 -17.85Q53.55 -18.5 53.2 -18.975Q52.85 -19.450000000000003 52.2 -19.450000000000003Q51.15 -19.450000000000003 49.925 -18.575000000000003Q48.7 -17.7 47.6 -16.475Q46.5 -15.25 45.775 -14.100000000000001Q45.05 -12.950000000000001 45.05 -12.4Q45.05 -12.100000000000001 45.4 -12.100000000000001Z"/>
  <path transform="translate(-316.25 157.45)" d="M37.7 1.4000000000000001Q31.1 1.4000000000000001 25.1 -0.9500000000000001Q19.1 -3.3000000000000003 14.5 -7.65Q9.9 -12.0 7.2 -18.05Q4.5 -24.1 4.5 -31.5Q4.5 -38.300000000000004 6.7 -44.550000000000004Q8.9 -50.800000000000004 13.2 -55.7Q17.5 -60.6 23.9 -63.5Q30.3 -66.4 38.6 -66.4Q45.2 -66.4 51.2 -64.05000000000001Q57.2 -61.7 61.800000000000004 -57.35Q66.4 -53.0 69.1 -46.95Q71.8 -40.900000000000006 71.8 -33.5Q71.8 -26.8 69.6 -20.5Q67.4 -14.200000000000001 63.10000000000001 -9.3Q58.800000000000004 -4.4 52.400000000000006 -1.5Q46.0 1.4000000000000001 37.7 1.4000000000000001ZM39.2 -2.6Q46.900000000000006 -2.6 52.0 -5.85Q57.1 -9.1 59.650000000000006 -14.95Q62.2 -20.8 62.2 -28.6Q62.2 -35.5 60.6 -41.6Q59.0 -47.7 55.85 -52.35Q52.7 -57.0 48.0 -59.6Q43.300000000000004 -62.2 37.0 -62.2Q29.5 -62.2 24.4 -59.0Q19.3 -55.800000000000004 16.700000000000003 -50.050000000000004Q14.100000000000001 -44.300000000000004 14.100000000000001 -36.5Q14.100000000000001 -29.5 15.65 -23.4Q17.2 -17.3 20.35 -12.600000000000001Q23.5 -7.9 28.2 -5.25Q32.9 -2.6 39.2 -2.6ZM154.0 2.1Q151.2 2.1 148.7 1.6500000000000001Q146.2 1.2000000000000002 144.1 0.0Q142.0 -1.2000000000000002 140.2 -3.3000000000000003Q137.8 -6.300000000000001 135.60000000000002 -9.05Q133.4 -11.8 130.95 -15.4Q128.5 -19.0 125.0 -24.6Q123.5 -27.1 120.7 -28.5Q118.5 -29.6 116.35 -30.05Q114.2 -30.5 112.8 -30.6Q112.0 -30.700000000000003 111.65 -30.1Q111.3 -29.5 111.3 -28.6V-11.0Q111.3 -7.800000000000001 112.8 -5.45Q114.3 -3.1 118.0 -2.4000000000000004Q119.7 -2.1 120.5 -1.7000000000000002Q121.3 -1.3 121.3 -0.6000000000000001Q121.3 0.0 120.5 0.25Q119.7 0.5 118.4 0.5Q115.7 0.5 114.25 0.3Q112.8 0.1 111.65 -0.05Q110.5 -0.2 108.6 -0.2Q106.1 -0.2 104.15 -0.05Q102.2 0.1 100.25 0.3Q98.3 0.5 95.6 0.5Q94.3 0.5 93.5 0.25Q92.7 0.0 92.7 -0.6000000000000001Q92.7 -1.8 96.0 -2.4000000000000004Q99.8 -3.1 101.55 -4.7Q103.3 -6.300000000000001 103.3 -10.0V-52.6Q103.3 -56.400000000000006 102.94999999999999 -58.35000000000001Q102.6 -60.300000000000004 101.35 -61.10000000000001Q100.1 -61.900000000000006 97.2 -62.2Q95.5 -62.400000000000006 94.69999999999999 -62.95Q93.89999999999999 -63.5 93.89999999999999 -64.2Q93.89999999999999 -64.8 94.69999999999999 -65.05Q95.5 -65.3 96.8 -65.3Q99.5 -65.3 100.85 -65.3Q102.2 -65.3 103.4 -65.25Q104.6 -65.2 106.6 -65.2Q108.5 -65.2 110.0 -65.35Q111.5 -65.5 113.35 -65.6Q115.2 -65.7 118.1 -65.7Q129.1 -65.7 134.85 -61.6Q140.6 -57.5 140.6 -49.300000000000004Q140.6 -44.800000000000004 138.8 -41.550000000000004Q137.0 -38.300000000000004 134.3 -36.1Q131.6 -33.9 128.8 -32.5Q128.4 -32.4 128.45 -32.05Q128.5 -31.700000000000003 128.8 -31.200000000000003Q131.9 -26.5 134.75 -22.3Q137.6 -18.1 141.0 -14.100000000000001Q144.4 -10.100000000000001 149.1 -5.800000000000001Q151.7 -3.5 154.39999999999998 -3.0Q157.1 -2.5 160.6 -2.5Q162.1 -2.5 162.1 -1.4000000000000001Q162.1 0.1 160.6 0.8500000000000001Q159.1 1.6 157.2 1.85Q155.3 2.1 154.0 2.1ZM116.6 -32.9Q121.2 -32.9 124.55000000000001 -35.0Q127.9 -37.1 129.75 -40.5Q131.6 -43.900000000000006 131.6 -47.7Q131.6 -51.800000000000004 130.55 -55.2Q129.5 -58.6 126.35 -60.650000000000006Q123.19999999999999 -62.7 116.9 -62.7Q113.7 -62.7 112.7 -60.650000000000006Q111.7 -58.6 111.5 -53.400000000000006Q111.4 -50.900000000000006 111.35 -46.650000000000006Q111.3 -42.400000000000006 111.3 -36.4Q111.3 -33.9 112.69999999999999 -33.4Q114.1 -32.9 116.6 -32.9ZM212.7 0.7000000000000001Q211.7 0.7000000000000001 208.25 0.5Q204.8 0.30000000000000004 200.35000000000002 0.15000000000000002Q195.9 0.0 191.9 0.0Q189.9 0.0 188.55 0.1Q187.2 0.2 185.64999999999998 0.35Q184.1 0.5 181.4 0.5Q180.1 0.5 179.3 0.2Q178.5 -0.1 178.5 -0.8Q178.5 -1.6 179.3 -1.85Q180.1 -2.1 181.79999999999998 -2.4000000000000004Q185.6 -3.1 187.05 -4.7Q188.5 -6.300000000000001 188.5 -9.9V-54.900000000000006Q188.5 -58.5 187.05 -60.0Q185.6 -61.5 181.79999999999998 -62.2Q180.1 -62.5 179.3 -62.85Q178.5 -63.2 178.5 -64.0Q178.5 -64.7 179.3 -65.0Q180.1 -65.3 181.4 -65.3Q184.0 -65.3 185.55 -65.25Q187.1 -65.2 188.6 -65.15Q190.1 -65.10000000000001 192.5 -65.10000000000001Q194.1 -65.10000000000001 196.55 -65.2Q199.0 -65.3 201.65 -65.5Q204.3 -65.7 206.45 -65.80000000000001Q208.6 -65.9 209.6 -65.9Q219.8 -65.9 227.0 -63.45Q234.2 -61.0 238.7 -56.650000000000006Q243.2 -52.300000000000004 245.35 -46.550000000000004Q247.5 -40.800000000000004 247.5 -34.2Q247.5 -27.0 244.8 -20.7Q242.1 -14.4 237.3 -9.55Q232.5 -4.7 226.2 -2.0Q219.9 0.7000000000000001 212.7 0.7000000000000001ZM211.5 -2.8000000000000003Q219.3 -2.8000000000000003 225.3 -6.6000000000000005Q231.3 -10.4 234.65 -17.1Q238.0 -23.8 238.0 -32.5Q238.0 -39.7 235.6 -45.35Q233.2 -51.0 229.2 -54.85Q225.2 -58.7 220.2 -60.75Q215.2 -62.800000000000004 210.1 -62.800000000000004Q205.8 -62.800000000000004 202.75 -62.550000000000004Q199.7 -62.300000000000004 198.1 -61.0Q196.5 -59.7 196.5 -56.7V-12.100000000000001Q196.5 -8.1 198.7 -6.1Q200.9 -4.1000000000000005 204.35000000000002 -3.45Q207.8 -2.8000000000000003 211.5 -2.8000000000000003ZM269.8 0.5Q268.5 0.5 267.7 0.25Q266.9 0.0 266.9 -0.6000000000000001Q266.9 -1.8 270.2 -2.4000000000000004Q274.0 -3.1 276.0 -4.7Q278.0 -6.300000000000001 278.0 -9.8V-55.0Q278.0 -58.5 276.55 -60.0Q275.1 -61.5 271.3 -62.2Q268.0 -62.800000000000004 268.0 -64.2Q268.0 -64.8 268.8 -65.05Q269.6 -65.3 270.9 -65.3Q273.6 -65.3 275.35 -65.2Q277.1 -65.10000000000001 278.70000000000005 -65.05000000000001Q280.3 -65.0 282.6 -65.0Q284.8 -65.0 286.20000000000005 -65.05000000000001Q287.6 -65.10000000000001 289.20000000000005 -65.2Q290.8 -65.3 293.5 -65.3Q294.8 -65.3 295.6 -65.05Q296.4 -64.8 296.4 -64.2Q296.4 -63.5 295.6 -63.0Q294.8 -62.5 293.1 -62.2Q289.4 -61.5 287.7 -60.0Q286.0 -58.5 286.0 -55.0V-9.8Q286.0 -6.300000000000001 288.1 -4.7Q290.2 -3.1 293.9 -2.4000000000000004Q295.6 -2.1 296.4 -1.7000000000000002Q297.2 -1.3 297.2 -0.6000000000000001Q297.2 0.0 296.4 0.25Q295.6 0.5 294.3 0.5Q291.6 0.5 289.85 0.35Q288.1 0.2 286.5 0.1Q284.9 0.0 282.6 0.0Q280.1 0.0 278.25 0.1Q276.4 0.2 274.45 0.35Q272.5 0.5 269.8 0.5ZM379.8 1.7000000000000002Q378.9 1.7000000000000002 376.25 0.20000000000000007Q373.6 -1.3 371.2 -4.6000000000000005Q370.8 -5.1000000000000005 368.75 -7.600000000000001Q366.7 -10.100000000000001 363.54999999999995 -13.850000000000001Q360.4 -17.6 356.7 -22.0Q353.0 -26.400000000000002 349.3 -30.800000000000004Q345.6 -35.2 342.4 -38.95Q339.2 -42.7 337.04999999999995 -45.25Q334.9 -47.800000000000004 334.4 -48.400000000000006Q333.7 -49.300000000000004 333.2 -49.650000000000006Q332.7 -50.0 332.3 -50.0Q331.8 -50.0 331.6 -49.25Q331.4 -48.5 331.4 -47.900000000000006Q331.3 -43.0 331.20000000000005 -36.6Q331.1 -30.200000000000003 331.0 -23.400000000000002Q330.9 -16.6 330.9 -10.4Q330.9 -7.7 332.25 -5.4Q333.6 -3.1 337.3 -2.4000000000000004Q339.0 -2.1 339.8 -1.7000000000000002Q340.6 -1.3 340.6 -0.6000000000000001Q340.6 0.0 339.8 0.25Q339.0 0.5 337.7 0.5Q335.0 0.5 333.65 0.35Q332.3 0.2 331.25 0.1Q330.2 0.0 328.3 0.0Q326.5 0.0 325.5 0.1Q324.5 0.2 323.2 0.35Q321.9 0.5 319.2 0.5Q317.9 0.5 317.1 0.25Q316.3 0.0 316.3 -0.6000000000000001Q316.3 -1.3 317.1 -1.7000000000000002Q317.9 -2.1 319.6 -2.5Q322.5 -3.3000000000000003 323.8 -5.45Q325.1 -7.6000000000000005 325.4 -10.700000000000001Q325.8 -14.5 326.20000000000005 -20.75Q326.6 -27.0 326.9 -34.75Q327.2 -42.5 327.2 -50.7Q327.2 -56.0 324.45 -58.3Q321.7 -60.6 317.3 -62.0Q316.9 -62.2 315.54999999999995 -62.85Q314.2 -63.5 314.2 -64.4Q314.2 -65.3 315.1 -65.55Q316.0 -65.8 316.5 -65.8Q319.4 -65.7 321.2 -65.65Q323.0 -65.60000000000001 324.4 -65.5Q325.8 -65.4 327.5 -65.35Q329.2 -65.3 331.9 -65.3Q332.8 -65.3 333.3 -64.8Q333.8 -64.3 334.3 -63.6Q334.7 -63.0 336.95 -60.25Q339.2 -57.5 342.54999999999995 -53.35Q345.9 -49.2 349.9 -44.35Q353.9 -39.5 357.9 -34.65Q361.9 -29.8 365.29999999999995 -25.65Q368.7 -21.5 370.95 -18.8Q373.2 -16.1 373.6 -15.600000000000001Q374.0 -15.200000000000001 374.75 -14.400000000000002Q375.5 -13.600000000000001 376.1 -13.600000000000001Q377.0 -13.600000000000001 377.1 -15.700000000000001Q377.1 -17.1 377.15 -21.05Q377.2 -25.0 377.25 -30.650000000000002Q377.3 -36.300000000000004 377.3 -42.900000000000006Q377.3 -49.5 377.3 -56.400000000000006Q377.2 -58.400000000000006 375.2 -60.0Q373.2 -61.6 371.5 -61.900000000000006Q369.8 -62.2 368.4 -62.7Q367.0 -63.2 367.0 -63.900000000000006Q367.0 -64.5 368.4 -64.75Q369.8 -65.0 371.1 -65.0Q372.1 -65.0 373.05 -65.0Q374.0 -65.0 374.95 -65.0Q375.9 -65.0 376.8 -65.0Q379.2 -65.0 380.6 -65.05000000000001Q382.0 -65.10000000000001 383.65 -65.2Q385.3 -65.3 388.3 -65.3Q389.6 -65.3 390.4 -65.05Q391.2 -64.8 391.2 -64.2Q391.2 -62.800000000000004 387.9 -62.2Q384.2 -61.5 383.0 -60.400000000000006Q381.8 -59.300000000000004 381.6 -56.800000000000004Q381.6 -56.300000000000004 381.55 -52.900000000000006Q381.5 -49.5 381.5 -44.3Q381.5 -39.1 381.45 -33.1Q381.4 -27.1 381.4 -21.150000000000002Q381.4 -15.200000000000001 381.4 -10.5Q381.4 -8.1 381.54999999999995 -6.15Q381.7 -4.2 381.79999999999995 -2.85Q381.9 -1.5 381.9 -0.8Q381.9 0.8 381.25 1.25Q380.6 1.7000000000000002 379.8 1.7000000000000002ZM408.9 0.5Q407.59999999999997 0.5 406.79999999999995 0.15Q406.0 -0.2 406.0 -0.8Q406.0 -1.5 406.85 -2.05Q407.7 -2.6 409.3 -3.1Q411.9 -3.9000000000000004 414.1 -5.5Q416.3 -7.1000000000000005 417.9 -10.8Q420.7 -17.2 423.04999999999995 -22.8Q425.4 -28.400000000000002 427.5 -33.800000000000004Q429.59999999999997 -39.2 431.84999999999997 -45.050000000000004Q434.09999999999997 -50.900000000000006 436.59999999999997 -57.800000000000004Q437.09999999999997 -59.2 437.5 -60.6Q437.9 -62.0 438.0 -63.6Q438.9 -63.900000000000006 439.79999999999995 -64.2Q440.7 -64.5 441.59999999999997 -65.10000000000001Q442.5 -65.7 442.85 -66.9Q443.2 -68.10000000000001 443.5 -68.5Q443.59999999999997 -68.60000000000001 443.75 -68.60000000000001Q443.9 -68.60000000000001 444.0 -68.4Q444.2 -68.0 444.35 -67.4Q444.5 -66.8 444.7 -66.2Q447.1 -58.6 449.70000000000005 -50.7Q452.3 -42.800000000000004 454.75 -35.45Q457.2 -28.1 459.25 -22.25Q461.3 -16.400000000000002 462.5 -12.8Q463.9 -8.8 465.5 -6.800000000000001Q467.1 -4.800000000000001 468.85 -4.0Q470.6 -3.2 472.6 -2.8000000000000003Q474.3 -2.5 475.1 -1.85Q475.9 -1.2000000000000002 475.9 -0.5Q475.9 0.1 475.1 0.3Q474.3 0.5 473.0 0.5Q471.6 0.5 469.20000000000005 0.35Q466.8 0.2 464.1 0.05Q461.4 -0.1 459.1 -0.1Q457.2 -0.1 455.2 -0.1Q453.2 -0.1 451.5 -0.05Q449.8 0.0 448.6 0.0Q447.3 0.0 446.5 -0.30000000000000004Q445.7 -0.6000000000000001 445.7 -1.2000000000000002Q445.7 -1.9000000000000001 446.7 -2.4000000000000004Q447.7 -2.9000000000000004 449.0 -3.1Q452.3 -3.6 453.70000000000005 -4.8Q455.1 -6.0 455.1 -7.6000000000000005Q455.1 -9.1 454.45000000000005 -11.95Q453.8 -14.8 452.9 -18.05Q452.0 -21.3 451.2 -23.8Q451.0 -24.6 450.45 -24.75Q449.9 -24.900000000000002 448.5 -24.900000000000002H429.59999999999997Q429.2 -24.900000000000002 428.75 -24.550000000000004Q428.3 -24.200000000000003 427.9 -23.1Q427.59999999999997 -22.1 426.9 -19.950000000000003Q426.2 -17.8 425.5 -15.4Q424.8 -13.0 424.3 -11.100000000000001Q423.8 -9.200000000000001 423.8 -8.700000000000001Q423.8 -6.5 425.5 -5.05Q427.2 -3.6 429.59999999999997 -3.0Q432.9 -2.1 432.9 -1.0Q432.9 -0.4 432.1 -0.15000000000000002Q431.3 0.1 430.0 0.1Q428.7 0.1 426.2 0.0Q423.7 -0.1 420.9 -0.1Q417.59999999999997 -0.1 414.5 0.2Q411.4 0.5 408.9 0.5ZM432.3 -28.200000000000003H447.8Q449.2 -28.200000000000003 449.2 -28.700000000000003Q449.2 -28.900000000000002 449.15 -29.150000000000002Q449.1 -29.400000000000002 449.0 -29.700000000000003L441.2 -54.1Q440.59999999999997 -55.900000000000006 440.3 -55.900000000000006Q440.09999999999997 -55.900000000000006 439.5 -54.2L430.4 -29.700000000000003Q430.2 -29.1 430.2 -28.900000000000002Q430.2 -28.400000000000002 430.75 -28.300000000000004Q431.3 -28.200000000000003 432.3 -28.200000000000003ZM553.1 2.1Q550.3 2.1 547.8 1.6500000000000001Q545.3 1.2000000000000002 543.2 0.0Q541.1 -1.2000000000000002 539.3 -3.3000000000000003Q536.9 -6.300000000000001 534.7 -9.05Q532.5 -11.8 530.05 -15.4Q527.6 -19.0 524.1 -24.6Q522.6 -27.1 519.8 -28.5Q517.6 -29.6 515.45 -30.05Q513.3 -30.5 511.9 -30.6Q511.09999999999997 -30.700000000000003 510.75 -30.1Q510.4 -29.5 510.4 -28.6V-11.0Q510.4 -7.800000000000001 511.9 -5.45Q513.4 -3.1 517.1 -2.4000000000000004Q518.8 -2.1 519.5999999999999 -1.7000000000000002Q520.4 -1.3 520.4 -0.6000000000000001Q520.4 0.0 519.5999999999999 0.25Q518.8 0.5 517.5 0.5Q514.8 0.5 513.3499999999999 0.3Q511.9 0.1 510.75 -0.05Q509.59999999999997 -0.2 507.7 -0.2Q505.2 -0.2 503.25 -0.05Q501.29999999999995 0.1 499.34999999999997 0.3Q497.4 0.5 494.7 0.5Q493.4 0.5 492.59999999999997 0.25Q491.79999999999995 0.0 491.79999999999995 -0.6000000000000001Q491.79999999999995 -1.8 495.09999999999997 -2.4000000000000004Q498.9 -3.1 500.65 -4.7Q502.4 -6.300000000000001 502.4 -10.0V-52.6Q502.4 -56.400000000000006 502.04999999999995 -58.35000000000001Q501.7 -60.300000000000004 500.45 -61.10000000000001Q499.2 -61.900000000000006 496.29999999999995 -62.2Q494.59999999999997 -62.400000000000006 493.79999999999995 -62.95Q493.0 -63.5 493.0 -64.2Q493.0 -64.8 493.79999999999995 -65.05Q494.59999999999997 -65.3 495.9 -65.3Q498.59999999999997 -65.3 499.94999999999993 -65.3Q501.29999999999995 -65.3 502.5 -65.25Q503.7 -65.2 505.7 -65.2Q507.59999999999997 -65.2 509.09999999999997 -65.35Q510.59999999999997 -65.5 512.4499999999999 -65.6Q514.3 -65.7 517.1999999999999 -65.7Q528.1999999999999 -65.7 533.9499999999999 -61.6Q539.6999999999999 -57.5 539.6999999999999 -49.300000000000004Q539.6999999999999 -44.800000000000004 537.9 -41.550000000000004Q536.1 -38.300000000000004 533.4 -36.1Q530.6999999999999 -33.9 527.9 -32.5Q527.5 -32.4 527.55 -32.05Q527.6 -31.700000000000003 527.9 -31.200000000000003Q531.0 -26.5 533.8499999999999 -22.3Q536.6999999999999 -18.1 540.0999999999999 -14.100000000000001Q543.5 -10.100000000000001 548.1999999999999 -5.800000000000001Q550.8 -3.5 553.5 -3.0Q556.1999999999999 -2.5 559.6999999999999 -2.5Q561.1999999999999 -2.5 561.1999999999999 -1.4000000000000001Q561.1999999999999 0.1 559.6999999999999 0.8500000000000001Q558.1999999999999 1.6 556.3 1.85Q554.4 2.1 553.1 2.1ZM515.6999999999999 -32.9Q520.3 -32.9 523.65 -35.0Q527.0 -37.1 528.8499999999999 -40.5Q530.6999999999999 -43.900000000000006 530.6999999999999 -47.7Q530.6999999999999 -51.800000000000004 529.65 -55.2Q528.6 -58.6 525.45 -60.650000000000006Q522.3 -62.7 516.0 -62.7Q512.8 -62.7 511.79999999999995 -60.650000000000006Q510.79999999999995 -58.6 510.59999999999997 -53.400000000000006Q510.5 -50.900000000000006 510.45 -46.650000000000006Q510.4 -42.400000000000006 510.4 -36.4Q510.4 -33.9 511.79999999999995 -33.4Q513.1999999999999 -32.9 515.6999999999999 -32.9ZM592.9 0.5Q591.5999999999999 0.5 590.8 0.25Q589.9999999999999 0.0 589.9999999999999 -0.6000000000000001Q589.9999999999999 -1.3 590.8 -1.7000000000000002Q591.5999999999999 -2.1 593.3 -2.4000000000000004Q597.0999999999999 -3.1 599.0999999999999 -5.15Q601.0999999999999 -7.2 601.0999999999999 -10.8V-25.6Q601.0999999999999 -27.6 600.05 -29.950000000000003Q598.9999999999999 -32.300000000000004 598.5999999999999 -33.0L586.9 -52.2Q586.1999999999999 -53.400000000000006 584.6999999999999 -55.550000000000004Q583.1999999999999 -57.7 581.4499999999999 -59.6Q579.6999999999999 -61.5 577.9999999999999 -62.0Q576.4 -62.5 575.55 -63.0Q574.6999999999999 -63.5 574.6999999999999 -64.2Q574.6999999999999 -64.8 575.5 -65.05Q576.3 -65.3 577.5999999999999 -65.3Q579.9 -65.3 582.9 -65.15Q585.9 -65.0 589.3 -65.0Q591.5999999999999 -65.0 593.6499999999999 -65.1Q595.6999999999999 -65.2 597.3 -65.2Q598.5999999999999 -65.2 599.3999999999999 -64.95Q600.1999999999999 -64.7 600.1999999999999 -64.10000000000001Q600.1999999999999 -63.400000000000006 599.3999999999999 -62.95Q598.5999999999999 -62.5 596.9 -62.1Q595.4999999999999 -61.7 594.5999999999999 -61.2Q593.6999999999999 -60.7 593.6999999999999 -59.6Q593.6999999999999 -58.300000000000004 594.9999999999999 -56.0L604.1999999999999 -39.0Q606.1999999999999 -35.2 606.9999999999999 -35.2Q607.5999999999999 -35.2 608.3 -36.05Q608.9999999999999 -36.9 610.3 -39.0Q612.5999999999999 -42.5 614.3999999999999 -45.7Q616.1999999999999 -48.900000000000006 618.6999999999999 -53.400000000000006Q619.6999999999999 -55.1 620.0999999999999 -56.35Q620.4999999999999 -57.6 620.4999999999999 -58.5Q620.4999999999999 -60.400000000000006 619.1499999999999 -61.10000000000001Q617.8 -61.800000000000004 616.4 -62.0Q615.4 -62.2 614.25 -62.75Q613.0999999999999 -63.300000000000004 613.0999999999999 -64.0Q613.0999999999999 -64.60000000000001 613.8999999999999 -64.85000000000001Q614.6999999999999 -65.10000000000001 615.9999999999999 -65.10000000000001Q618.3 -65.10000000000001 619.8 -65.05000000000001Q621.3 -65.0 623.4999999999999 -65.0Q626.5999999999999 -65.0 629.3999999999999 -65.15Q632.1999999999999 -65.3 633.9 -65.3Q635.1999999999999 -65.3 636.0 -65.05Q636.8 -64.8 636.8 -64.2Q636.8 -63.5 635.1999999999999 -62.900000000000006Q633.5999999999999 -62.300000000000004 631.4999999999999 -61.7Q628.9 -61.0 627.15 -58.85Q625.4 -56.7 622.6999999999999 -52.6Q620.6999999999999 -49.5 619.3499999999999 -47.400000000000006Q617.9999999999999 -45.300000000000004 616.8499999999999 -43.5Q615.6999999999999 -41.7 614.5 -39.75Q613.3 -37.800000000000004 611.5999999999999 -35.0Q610.3 -32.9 609.8 -31.6Q609.3 -30.3 609.1999999999999 -29.15Q609.0999999999999 -28.0 609.0999999999999 -26.0V-10.8Q609.0999999999999 -7.4 611.1999999999999 -5.25Q613.3 -3.1 616.9999999999999 -2.4000000000000004Q618.6999999999999 -2.1 619.5 -1.7000000000000002Q620.3 -1.3 620.3 -0.6000000000000001Q620.3 0.0 619.5 0.25Q618.6999999999999 0.5 617.4 0.5Q614.6999999999999 0.5 612.9499999999999 0.35Q611.1999999999999 0.2 609.5999999999999 0.1Q607.9999999999999 0.0 605.6999999999999 0.0Q603.1999999999999 0.0 601.3499999999999 0.1Q599.4999999999999 0.2 597.55 0.35Q595.5999999999999 0.5 592.9 0.5Z"/>
  <path transform="translate(-291.40 267.45)" d="M40.7 1.5Q33.7 1.5 27.200000000000003 -0.9000000000000001Q20.700000000000003 -3.3000000000000003 15.600000000000001 -7.750000000000001Q10.5 -12.200000000000001 7.550000000000001 -18.450000000000003Q4.6000000000000005 -24.700000000000003 4.6000000000000005 -32.300000000000004Q4.6000000000000005 -39.6 7.700000000000001 -45.8Q10.8 -52.0 16.200000000000003 -56.6Q21.6 -61.2 28.55 -63.75Q35.5 -66.3 43.2 -66.3Q47.1 -66.3 49.8 -66.0Q52.5 -65.7 55.05 -65.15Q57.6 -64.60000000000001 61.0 -63.7Q62.5 -63.300000000000004 63.150000000000006 -62.5Q63.800000000000004 -61.7 63.900000000000006 -60.300000000000004Q64.10000000000001 -58.0 64.4 -55.35Q64.7 -52.7 64.8 -48.800000000000004Q64.9 -48.1 64.15 -47.650000000000006Q63.400000000000006 -47.2 62.550000000000004 -47.400000000000006Q61.7 -47.6 61.400000000000006 -48.7Q60.400000000000006 -52.5 59.10000000000001 -55.25Q57.800000000000004 -58.0 55.2 -59.800000000000004Q52.7 -61.5 49.150000000000006 -62.35Q45.6 -63.2 41.5 -63.2Q35.7 -63.2 30.75 -60.85Q25.8 -58.5 22.25 -54.45Q18.7 -50.400000000000006 16.7 -45.300000000000004Q14.700000000000001 -40.2 14.700000000000001 -34.7Q14.700000000000001 -28.6 16.650000000000002 -22.700000000000003Q18.6 -16.8 22.25 -12.05Q25.900000000000002 -7.300000000000001 30.950000000000003 -4.45Q36.0 -1.6 42.2 -1.6Q49.400000000000006 -1.6 54.10000000000001 -4.9Q58.800000000000004 -8.200000000000001 62.1 -14.100000000000001Q62.800000000000004 -15.4 64.15 -15.4Q65.5 -15.4 65.5 -13.8Q65.5 -13.0 65.1 -11.25Q64.7 -9.5 64.05000000000001 -7.550000000000001Q63.400000000000006 -5.6000000000000005 62.800000000000004 -4.1000000000000005Q62.1 -2.7 61.650000000000006 -2.3000000000000003Q61.2 -1.9000000000000001 59.6 -1.4000000000000001Q55.900000000000006 0.1 50.75 0.8Q45.6 1.5 40.7 1.5ZM122.7 1.4000000000000001Q116.1 1.4000000000000001 110.1 -0.9500000000000001Q104.1 -3.3000000000000003 99.5 -7.65Q94.9 -12.0 92.2 -18.05Q89.5 -24.1 89.5 -31.5Q89.5 -38.300000000000004 91.7 -44.550000000000004Q93.9 -50.800000000000004 98.2 -55.7Q102.5 -60.6 108.9 -63.5Q115.3 -66.4 123.6 -66.4Q130.2 -66.4 136.2 -64.05000000000001Q142.2 -61.7 146.8 -57.35Q151.4 -53.0 154.10000000000002 -46.95Q156.8 -40.900000000000006 156.8 -33.5Q156.8 -26.8 154.60000000000002 -20.5Q152.4 -14.200000000000001 148.10000000000002 -9.3Q143.8 -4.4 137.4 -1.5Q131.0 1.4000000000000001 122.7 1.4000000000000001ZM124.2 -2.6Q131.9 -2.6 137.0 -5.85Q142.1 -9.1 144.64999999999998 -14.95Q147.2 -20.8 147.2 -28.6Q147.2 -35.5 145.6 -41.6Q144.0 -47.7 140.85 -52.35Q137.7 -57.0 133.0 -59.6Q128.3 -62.2 122.0 -62.2Q114.5 -62.2 109.4 -59.0Q104.3 -55.800000000000004 101.69999999999999 -50.050000000000004Q99.1 -44.300000000000004 99.1 -36.5Q99.1 -29.5 100.65 -23.4Q102.2 -17.3 105.35 -12.600000000000001Q108.5 -7.9 113.2 -5.25Q117.9 -2.6 124.2 -2.6ZM180.10000000000002 0.5Q178.8 0.5 178.0 0.25Q177.20000000000002 0.0 177.20000000000002 -0.6000000000000001Q177.20000000000002 -1.3 178.0 -1.7000000000000002Q178.8 -2.1 180.5 -2.4000000000000004Q183.0 -2.9000000000000004 184.60000000000002 -4.800000000000001Q186.20000000000002 -6.7 186.70000000000002 -10.200000000000001Q187.9 -19.200000000000003 188.8 -27.35Q189.70000000000002 -35.5 190.25 -42.05Q190.8 -48.6 190.8 -52.800000000000004Q190.8 -53.6 190.8 -54.5Q190.8 -55.400000000000006 190.70000000000002 -56.1Q190.60000000000002 -56.900000000000006 190.40000000000003 -57.75Q190.20000000000002 -58.6 189.20000000000002 -59.400000000000006Q187.4 -60.900000000000006 185.7 -61.45Q184.0 -62.0 181.70000000000002 -62.400000000000006Q180.70000000000002 -62.6 180.10000000000002 -63.150000000000006Q179.5 -63.7 179.5 -64.4Q179.5 -65.2 180.45 -65.35Q181.4 -65.5 182.9 -65.5Q183.9 -65.5 185.95 -65.4Q188.0 -65.3 190.4 -65.1Q192.8 -64.9 194.85000000000002 -64.80000000000001Q196.9 -64.7 197.9 -64.7Q198.60000000000002 -64.7 199.10000000000002 -64.30000000000001Q199.60000000000002 -63.900000000000006 199.8 -63.1Q200.3 -61.300000000000004 200.8 -59.300000000000004Q201.3 -57.300000000000004 202.0 -55.400000000000006L217.8 -15.3Q218.10000000000002 -14.600000000000001 218.90000000000003 -14.450000000000001Q219.70000000000002 -14.3 220.10000000000002 -15.0L239.8 -56.0Q240.3 -57.7 240.8 -59.800000000000004Q241.3 -61.900000000000006 241.60000000000002 -63.5Q241.90000000000003 -64.8 242.60000000000002 -64.8H246.20000000000002Q249.20000000000002 -64.8 252.55 -65.2Q255.90000000000003 -65.60000000000001 257.6 -65.60000000000001Q258.1 -65.60000000000001 258.90000000000003 -65.45Q259.70000000000005 -65.3 259.70000000000005 -64.60000000000001Q259.70000000000005 -63.900000000000006 259.15000000000003 -63.5Q258.6 -63.1 257.1 -62.5Q255.8 -62.0 254.20000000000002 -61.400000000000006Q252.60000000000002 -60.800000000000004 251.20000000000002 -60.2Q250.20000000000002 -59.800000000000004 249.5 -58.85000000000001Q248.8 -57.900000000000006 248.8 -56.800000000000004Q248.8 -49.800000000000004 249.05 -43.650000000000006Q249.3 -37.5 249.60000000000002 -31.85Q249.90000000000003 -26.200000000000003 250.3 -20.700000000000003Q250.70000000000002 -15.200000000000001 251.0 -9.5Q251.20000000000002 -6.4 253.0 -4.75Q254.8 -3.1 258.5 -2.4000000000000004Q260.20000000000005 -2.1 261.0 -1.7000000000000002Q261.8 -1.3 261.8 -0.6000000000000001Q261.8 0.0 261.0 0.25Q260.20000000000005 0.5 258.90000000000003 0.5Q256.20000000000005 0.5 254.45000000000005 0.35Q252.70000000000002 0.2 251.10000000000002 0.1Q249.5 0.0 247.20000000000002 0.0Q245.20000000000002 0.0 243.85000000000002 0.1Q242.5 0.2 240.95000000000002 0.35Q239.40000000000003 0.5 236.70000000000002 0.5Q235.4 0.5 234.60000000000002 0.25Q233.8 0.0 233.8 -0.6000000000000001Q233.8 -1.3 234.60000000000002 -1.75Q235.4 -2.2 237.10000000000002 -2.4000000000000004Q240.0 -2.8000000000000003 241.10000000000002 -4.45Q242.20000000000002 -6.1000000000000005 242.20000000000002 -9.600000000000001Q242.20000000000002 -16.8 242.05 -22.6Q241.90000000000003 -28.400000000000002 241.60000000000002 -34.050000000000004Q241.3 -39.7 241.0 -46.400000000000006Q240.90000000000003 -47.5 240.40000000000003 -47.45Q239.90000000000003 -47.400000000000006 239.40000000000003 -46.400000000000006L216.4 0.5Q216.20000000000002 1.0 215.5 1.05Q214.8 1.1 214.60000000000002 0.4Q210.70000000000002 -11.3 206.25 -22.65Q201.8 -34.0 196.20000000000002 -47.1Q196.0 -47.6 195.5 -47.6Q195.0 -47.6 194.9 -47.1Q194.0 -40.1 193.25 -34.25Q192.5 -28.400000000000002 192.10000000000002 -22.700000000000003Q191.70000000000002 -17.0 191.70000000000002 -10.200000000000001Q191.70000000000002 -7.5 193.40000000000003 -5.25Q195.10000000000002 -3.0 198.20000000000002 -2.4000000000000004Q199.9 -2.1 200.7 -1.7000000000000002Q201.5 -1.3 201.5 -0.6000000000000001Q201.5 0.0 200.7 0.25Q199.9 0.5 198.60000000000002 0.5Q195.9 0.5 194.55 0.35Q193.20000000000002 0.2 192.15000000000003 0.1Q191.10000000000002 0.0 189.20000000000002 0.0Q187.4 0.0 186.4 0.1Q185.4 0.2 184.10000000000002 0.35Q182.8 0.5 180.10000000000002 0.5ZM284.70000000000005 0.5Q283.40000000000003 0.5 282.6 0.25Q281.8 0.0 281.8 -0.6000000000000001Q281.8 -1.8 285.1 -2.4000000000000004Q288.90000000000003 -3.1 290.65000000000003 -4.7Q292.40000000000003 -6.300000000000001 292.40000000000003 -10.0V-52.2Q292.40000000000003 -56.7 291.25 -59.1Q290.1 -61.5 286.3 -62.2Q284.6 -62.5 283.80000000000007 -63.0Q283.00000000000006 -63.5 283.00000000000006 -64.2Q283.00000000000006 -64.8 283.80000000000007 -65.05Q284.6 -65.3 285.90000000000003 -65.3Q288.6 -65.3 289.95000000000005 -65.3Q291.3 -65.3 292.5 -65.25Q293.70000000000005 -65.2 295.70000000000005 -65.2Q297.70000000000005 -65.2 299.75 -65.35Q301.8 -65.5 303.6 -65.65Q305.40000000000003 -65.8 306.8 -65.8Q318.20000000000005 -65.8 325.15000000000003 -61.1Q332.1 -56.400000000000006 332.1 -48.0Q332.1 -41.900000000000006 329.70000000000005 -36.75Q327.30000000000007 -31.6 322.35 -28.5Q317.40000000000003 -25.400000000000002 309.70000000000005 -25.400000000000002Q307.50000000000006 -25.400000000000002 306.35 -26.050000000000004Q305.20000000000005 -26.700000000000003 305.20000000000005 -27.3Q305.20000000000005 -27.700000000000003 305.75 -28.200000000000003Q306.3 -28.700000000000003 306.8 -28.700000000000003Q307.3 -28.700000000000003 308.35 -28.6Q309.40000000000003 -28.5 311.40000000000003 -28.5Q317.40000000000003 -28.5 320.45000000000005 -33.5Q323.50000000000006 -38.5 323.50000000000006 -47.300000000000004Q323.50000000000006 -55.300000000000004 318.80000000000007 -59.150000000000006Q314.1 -63.0 306.8 -63.0Q304.00000000000006 -63.0 302.20000000000005 -62.05Q300.40000000000003 -61.1 300.40000000000003 -58.800000000000004V-11.100000000000001Q300.40000000000003 -7.5 301.90000000000003 -5.3Q303.40000000000003 -3.1 307.1 -2.4000000000000004Q308.8 -2.1 309.6 -1.7000000000000002Q310.40000000000003 -1.3 310.40000000000003 -0.6000000000000001Q310.40000000000003 0.0 309.6 0.25Q308.8 0.5 307.50000000000006 0.5Q304.8 0.5 303.35 0.3Q301.90000000000003 0.1 300.75 -0.05Q299.6 -0.2 297.70000000000005 -0.2Q295.20000000000005 -0.2 293.25 -0.05Q291.3 0.1 289.35 0.3Q287.40000000000003 0.5 284.70000000000005 0.5ZM351.3 0.5Q350.0 0.5 349.20000000000005 0.15Q348.40000000000003 -0.2 348.40000000000003 -0.8Q348.40000000000003 -1.5 349.25 -2.05Q350.1 -2.6 351.70000000000005 -3.1Q354.3 -3.9000000000000004 356.5 -5.5Q358.70000000000005 -7.1000000000000005 360.3 -10.8Q363.1 -17.2 365.45000000000005 -22.8Q367.8 -28.400000000000002 369.9 -33.800000000000004Q372.0 -39.2 374.25 -45.050000000000004Q376.5 -50.900000000000006 379.0 -57.800000000000004Q379.5 -59.2 379.9 -60.6Q380.3 -62.0 380.40000000000003 -63.6Q381.3 -63.900000000000006 382.20000000000005 -64.2Q383.1 -64.5 384.0 -65.10000000000001Q384.90000000000003 -65.7 385.25 -66.9Q385.6 -68.10000000000001 385.90000000000003 -68.5Q386.0 -68.60000000000001 386.15 -68.60000000000001Q386.3 -68.60000000000001 386.40000000000003 -68.4Q386.6 -68.0 386.75 -67.4Q386.90000000000003 -66.8 387.1 -66.2Q389.5 -58.6 392.1 -50.7Q394.70000000000005 -42.800000000000004 397.15000000000003 -35.45Q399.6 -28.1 401.65000000000003 -22.25Q403.70000000000005 -16.400000000000002 404.90000000000003 -12.8Q406.3 -8.8 407.9 -6.800000000000001Q409.5 -4.800000000000001 411.25 -4.0Q413.0 -3.2 415.0 -2.8000000000000003Q416.70000000000005 -2.5 417.5 -1.85Q418.3 -1.2000000000000002 418.3 -0.5Q418.3 0.1 417.5 0.3Q416.70000000000005 0.5 415.40000000000003 0.5Q414.0 0.5 411.6 0.35Q409.20000000000005 0.2 406.5 0.05Q403.8 -0.1 401.5 -0.1Q399.6 -0.1 397.6 -0.1Q395.6 -0.1 393.90000000000003 -0.05Q392.20000000000005 0.0 391.0 0.0Q389.70000000000005 0.0 388.90000000000003 -0.30000000000000004Q388.1 -0.6000000000000001 388.1 -1.2000000000000002Q388.1 -1.9000000000000001 389.1 -2.4000000000000004Q390.1 -2.9000000000000004 391.40000000000003 -3.1Q394.70000000000005 -3.6 396.1 -4.8Q397.5 -6.0 397.5 -7.6000000000000005Q397.5 -9.1 396.85 -11.95Q396.20000000000005 -14.8 395.30000000000007 -18.05Q394.40000000000003 -21.3 393.6 -23.8Q393.40000000000003 -24.6 392.85 -24.75Q392.3 -24.900000000000002 390.90000000000003 -24.900000000000002H372.0Q371.6 -24.900000000000002 371.15000000000003 -24.550000000000004Q370.70000000000005 -24.200000000000003 370.3 -23.1Q370.0 -22.1 369.3 -19.950000000000003Q368.6 -17.8 367.90000000000003 -15.4Q367.20000000000005 -13.0 366.70000000000005 -11.100000000000001Q366.20000000000005 -9.200000000000001 366.20000000000005 -8.700000000000001Q366.20000000000005 -6.5 367.90000000000003 -5.05Q369.6 -3.6 372.0 -3.0Q375.3 -2.1 375.3 -1.0Q375.3 -0.4 374.5 -0.15000000000000002Q373.70000000000005 0.1 372.40000000000003 0.1Q371.1 0.1 368.6 0.0Q366.1 -0.1 363.3 -0.1Q360.0 -0.1 356.9 0.2Q353.8 0.5 351.3 0.5ZM374.70000000000005 -28.200000000000003H390.20000000000005Q391.6 -28.200000000000003 391.6 -28.700000000000003Q391.6 -28.900000000000002 391.55 -29.150000000000002Q391.5 -29.400000000000002 391.40000000000003 -29.700000000000003L383.6 -54.1Q383.0 -55.900000000000006 382.70000000000005 -55.900000000000006Q382.5 -55.900000000000006 381.90000000000003 -54.2L372.8 -29.700000000000003Q372.6 -29.1 372.6 -28.900000000000002Q372.6 -28.400000000000002 373.15000000000003 -28.300000000000004Q373.70000000000005 -28.200000000000003 374.70000000000005 -28.200000000000003ZM498.6 1.7000000000000002Q497.70000000000005 1.7000000000000002 495.05000000000007 0.20000000000000007Q492.40000000000003 -1.3 490.0 -4.6000000000000005Q489.6 -5.1000000000000005 487.55 -7.600000000000001Q485.5 -10.100000000000001 482.35 -13.850000000000001Q479.20000000000005 -17.6 475.5 -22.0Q471.8 -26.400000000000002 468.1 -30.800000000000004Q464.40000000000003 -35.2 461.20000000000005 -38.95Q458.0 -42.7 455.85 -45.25Q453.7 -47.800000000000004 453.2 -48.400000000000006Q452.5 -49.300000000000004 452.0 -49.650000000000006Q451.5 -50.0 451.1 -50.0Q450.6 -50.0 450.4 -49.25Q450.2 -48.5 450.2 -47.900000000000006Q450.1 -43.0 450.0 -36.6Q449.90000000000003 -30.200000000000003 449.8 -23.400000000000002Q449.7 -16.6 449.7 -10.4Q449.7 -7.7 451.05 -5.4Q452.40000000000003 -3.1 456.1 -2.4000000000000004Q457.8 -2.1 458.6 -1.7000000000000002Q459.40000000000003 -1.3 459.40000000000003 -0.6000000000000001Q459.40000000000003 0.0 458.6 0.25Q457.8 0.5 456.5 0.5Q453.8 0.5 452.45000000000005 0.35Q451.1 0.2 450.05 0.1Q449.0 0.0 447.1 0.0Q445.3 0.0 444.3 0.1Q443.3 0.2 442.0 0.35Q440.7 0.5 438.0 0.5Q436.7 0.5 435.9 0.25Q435.1 0.0 435.1 -0.6000000000000001Q435.1 -1.3 435.9 -1.7000000000000002Q436.7 -2.1 438.40000000000003 -2.5Q441.3 -3.3000000000000003 442.6 -5.45Q443.90000000000003 -7.6000000000000005 444.2 -10.700000000000001Q444.6 -14.5 445.0 -20.75Q445.40000000000003 -27.0 445.70000000000005 -34.75Q446.0 -42.5 446.0 -50.7Q446.0 -56.0 443.25 -58.3Q440.5 -60.6 436.1 -62.0Q435.7 -62.2 434.35 -62.85Q433.0 -63.5 433.0 -64.4Q433.0 -65.3 433.9 -65.55Q434.8 -65.8 435.3 -65.8Q438.2 -65.7 440.0 -65.65Q441.8 -65.60000000000001 443.20000000000005 -65.5Q444.6 -65.4 446.3 -65.35Q448.0 -65.3 450.7 -65.3Q451.6 -65.3 452.1 -64.8Q452.6 -64.3 453.1 -63.6Q453.5 -63.0 455.75 -60.25Q458.0 -57.5 461.35 -53.35Q464.7 -49.2 468.70000000000005 -44.35Q472.70000000000005 -39.5 476.70000000000005 -34.65Q480.70000000000005 -29.8 484.1 -25.65Q487.5 -21.5 489.75 -18.8Q492.0 -16.1 492.40000000000003 -15.600000000000001Q492.8 -15.200000000000001 493.55 -14.400000000000002Q494.3 -13.600000000000001 494.90000000000003 -13.600000000000001Q495.8 -13.600000000000001 495.90000000000003 -15.700000000000001Q495.90000000000003 -17.1 495.95000000000005 -21.05Q496.0 -25.0 496.05 -30.650000000000002Q496.1 -36.300000000000004 496.1 -42.900000000000006Q496.1 -49.5 496.1 -56.400000000000006Q496.0 -58.400000000000006 494.0 -60.0Q492.0 -61.6 490.3 -61.900000000000006Q488.6 -62.2 487.20000000000005 -62.7Q485.8 -63.2 485.8 -63.900000000000006Q485.8 -64.5 487.20000000000005 -64.75Q488.6 -65.0 489.90000000000003 -65.0Q490.90000000000003 -65.0 491.85 -65.0Q492.8 -65.0 493.75 -65.0Q494.70000000000005 -65.0 495.6 -65.0Q498.0 -65.0 499.4 -65.05000000000001Q500.8 -65.10000000000001 502.45000000000005 -65.2Q504.1 -65.3 507.1 -65.3Q508.40000000000003 -65.3 509.20000000000005 -65.05Q510.0 -64.8 510.0 -64.2Q510.0 -62.800000000000004 506.70000000000005 -62.2Q503.0 -61.5 501.8 -60.400000000000006Q500.6 -59.300000000000004 500.40000000000003 -56.800000000000004Q500.40000000000003 -56.300000000000004 500.35 -52.900000000000006Q500.3 -49.5 500.3 -44.3Q500.3 -39.1 500.25 -33.1Q500.20000000000005 -27.1 500.20000000000005 -21.150000000000002Q500.20000000000005 -15.200000000000001 500.20000000000005 -10.5Q500.20000000000005 -8.1 500.35 -6.15Q500.5 -4.2 500.6 -2.85Q500.70000000000005 -1.5 500.70000000000005 -0.8Q500.70000000000005 0.8 500.05000000000007 1.25Q499.40000000000003 1.7000000000000002 498.6 1.7000000000000002ZM543.2 0.5Q541.9 0.5 541.0999999999999 0.25Q540.3 0.0 540.3 -0.6000000000000001Q540.3 -1.3 541.0999999999999 -1.7000000000000002Q541.9 -2.1 543.6 -2.4000000000000004Q547.4 -3.1 549.4 -5.15Q551.4 -7.2 551.4 -10.8V-25.6Q551.4 -27.6 550.3499999999999 -29.950000000000003Q549.3 -32.300000000000004 548.9 -33.0L537.2 -52.2Q536.5 -53.400000000000006 535.0 -55.550000000000004Q533.5 -57.7 531.75 -59.6Q530.0 -61.5 528.3 -62.0Q526.7 -62.5 525.85 -63.0Q525.0 -63.5 525.0 -64.2Q525.0 -64.8 525.8 -65.05Q526.6 -65.3 527.9 -65.3Q530.2 -65.3 533.2 -65.15Q536.2 -65.0 539.6 -65.0Q541.9 -65.0 543.95 -65.1Q546.0 -65.2 547.6 -65.2Q548.9 -65.2 549.7 -64.95Q550.5 -64.7 550.5 -64.10000000000001Q550.5 -63.400000000000006 549.7 -62.95Q548.9 -62.5 547.2 -62.1Q545.8 -61.7 544.9 -61.2Q544.0 -60.7 544.0 -59.6Q544.0 -58.300000000000004 545.3 -56.0L554.5 -39.0Q556.5 -35.2 557.3 -35.2Q557.9 -35.2 558.5999999999999 -36.05Q559.3 -36.9 560.6 -39.0Q562.9 -42.5 564.7 -45.7Q566.5 -48.900000000000006 569.0 -53.400000000000006Q570.0 -55.1 570.4 -56.35Q570.8 -57.6 570.8 -58.5Q570.8 -60.400000000000006 569.45 -61.10000000000001Q568.1 -61.800000000000004 566.7 -62.0Q565.7 -62.2 564.55 -62.75Q563.4 -63.300000000000004 563.4 -64.0Q563.4 -64.60000000000001 564.2 -64.85000000000001Q565.0 -65.10000000000001 566.3 -65.10000000000001Q568.6 -65.10000000000001 570.1 -65.05000000000001Q571.6 -65.0 573.8 -65.0Q576.9 -65.0 579.7 -65.15Q582.5 -65.3 584.2 -65.3Q585.5 -65.3 586.3 -65.05Q587.1 -64.8 587.1 -64.2Q587.1 -63.5 585.5 -62.900000000000006Q583.9 -62.300000000000004 581.8 -61.7Q579.2 -61.0 577.45 -58.85Q575.7 -56.7 573.0 -52.6Q571.0 -49.5 569.65 -47.400000000000006Q568.3 -45.300000000000004 567.15 -43.5Q566.0 -41.7 564.8 -39.75Q563.6 -37.800000000000004 561.9 -35.0Q560.6 -32.9 560.1 -31.6Q559.6 -30.3 559.5 -29.15Q559.4 -28.0 559.4 -26.0V-10.8Q559.4 -7.4 561.5 -5.25Q563.6 -3.1 567.3 -2.4000000000000004Q569.0 -2.1 569.8 -1.7000000000000002Q570.6 -1.3 570.6 -0.6000000000000001Q570.6 0.0 569.8 0.25Q569.0 0.5 567.7 0.5Q565.0 0.5 563.25 0.35Q561.5 0.2 559.9 0.1Q558.3 0.0 556.0 0.0Q553.5 0.0 551.65 0.1Q549.8 0.2 547.8499999999999 0.35Q545.9 0.5 543.2 0.5Z"/>
</svg>
